<svg xmlns="http://www.w3.org/2000/svg" version="1.1" xmlns:xlink="http://www.w3.org/1999/xlink" xmlns:svgjs="http://svgjs.dev/svgjs" width="1920" height="1080" preserveAspectRatio="none" viewBox="0 0 1920 1080">
    <g mask="url(&quot;#SvgjsMask1064&quot;)" fill="none">
        <rect width="1920" height="1080" x="0" y="0" fill="#0e2a47"></rect>
        <path d="M654.59 618.72L726.4 618.72L726.4 690.53L654.59 690.53z" fill="#e73635"></path>
        <path d="M1343.65 394.89L1373.81 394.89L1373.81 425.05L1343.65 425.05z" stroke="#d3b714"></path>
        <path d="M1123.98 405.35L1124.46 405.35L1124.46 501.15L1123.98 501.15z" stroke="#e73635"></path>
        <path d="M809.19 571.88 a35.43 35.43 0 1 0 70.86 0 a35.43 35.43 0 1 0 -70.86 0z" stroke="#e73635"></path>
        <path d="M1600.46 869.34 a11.44 11.44 0 1 0 22.88 0 a11.44 11.44 0 1 0 -22.88 0z" stroke="#e73635"></path>
        <path d="M1170.12 778.68L1243.11 778.68L1243.11 809.69L1170.12 809.69z" stroke="#e73635"></path>
        <path d="M1748.19 330.57L1769.77 330.57L1769.77 352.15L1748.19 352.15z" fill="#d3b714"></path>
        <path d="M1361.95 188.96a47.86 47.86 0 1 0-95.13 10.58z" fill="#e73635"></path>
        <path d="M869.52 462.2 a36.54 36.54 0 1 0 73.08 0 a36.54 36.54 0 1 0 -73.08 0z" fill="#e73635"></path>
        <path d="M1292.29 662.08a106.59 106.59 0 1 0-103.7-186.25z" fill="#e73635"></path>
        <path d="M1255.68 668.51L1353.68 668.51L1353.68 766.51L1255.68 766.51z" fill="#037b0b"></path>
        <path d="M466.86 1049.59a66.82 66.82 0 1 0-107.02-80.04z" fill="#e73635"></path>
        <path d="M292.16 486.86a75.92 75.92 0 1 0 82.5-127.47z" stroke="#037b0b"></path>
        <path d="M1618.64 916.02L1686.01 916.02L1686.01 983.39L1618.64 983.39z" fill="#037b0b"></path>
        <path d="M837.57 831.53 a98.01 98.01 0 1 0 196.02 0 a98.01 98.01 0 1 0 -196.02 0z" stroke="#037b0b"></path>
        <path d="M1012.74 1068.09L1061.39 1068.09L1061.39 1116.74L1012.74 1116.74z" stroke="#037b0b"></path>
        <path d="M275.5 123.02L358.68 123.02L358.68 168.81L275.5 168.81z" stroke="#d3b714"></path>
        <path d="M921.88 1062.47 a91.82 91.82 0 1 0 183.64 0 a91.82 91.82 0 1 0 -183.64 0z" fill="#037b0b"></path>
        <path d="M1723.16 496.53 a29.25 29.25 0 1 0 58.5 0 a29.25 29.25 0 1 0 -58.5 0z" fill="#d3b714"></path>
        <path d="M313.04 1037.61L398.82 1037.61L398.82 1123.39L313.04 1123.39z" stroke="#037b0b"></path>
        <path d="M1128 604.59a86.19 86.19 0 1 0-0.68 172.38z" stroke="#e73635"></path>
        <path d="M1749.51 526.93a85.6 85.6 0 1 0-47.24 164.55z" stroke="#d3b714"></path>
        <path d="M648.38 622.57L747.5 622.57L747.5 700.3L648.38 700.3z" stroke="#e73635"></path>
    </g>
    <defs>
        <mask id="SvgjsMask1064">
            <rect width="1920" height="1080" fill="#ffffff"></rect>
        </mask>
    </defs>
</svg>